<svg width="24" height="24" viewBox="0 0 24 24" fill="none" xmlns="http://www.w3.org/2000/svg">
<path d="M12 24C18.6274 24 24 18.6274 24 12C24 5.37258 18.6274 0 12 0C5.37258 0 0 5.37258 0 12C0 18.6274 5.37258 24 12 24Z" fill="url(#paint0_linear_2416_3046)"/>
<path d="M17.2518 16.7798L13.1941 6.96948C12.9652 6.46227 12.625 6.21484 12.1765 6.21484H11.8178C11.3693 6.21484 11.0291 6.46227 10.8003 6.96948L9.03427 11.2437H7.69819C7.29922 11.2468 6.97448 11.5685 6.97139 11.9705V11.9798C6.97448 12.3788 7.29922 12.7035 7.69819 12.7066H8.41572L6.73015 16.7798C6.69922 16.8695 6.68066 16.9623 6.68066 17.0581C6.68066 17.287 6.7518 17.4664 6.8786 17.6056C7.00541 17.7447 7.18788 17.8128 7.41675 17.8128C7.56829 17.8097 7.71365 17.7633 7.83427 17.6736C7.96417 17.5839 8.05386 17.454 8.12499 17.3056L9.98066 12.7035H11.2673C11.6662 12.7004 11.991 12.3788 11.9941 11.9767V11.9581C11.991 11.5592 11.6662 11.2344 11.2673 11.2313H10.5807L11.9972 7.70247L15.857 17.3025C15.9281 17.4509 16.0178 17.5808 16.1477 17.6705C16.2683 17.7602 16.4167 17.8066 16.5652 17.8097C16.7941 17.8097 16.9734 17.7416 17.1033 17.6025C17.2332 17.4633 17.3013 17.2839 17.3013 17.055C17.3044 16.9623 17.2889 16.8664 17.2518 16.7798Z" fill="white"/>
<defs>
<linearGradient id="paint0_linear_2416_3046" x1="20.947" y1="4.47174" x2="3.09103" y2="19.4957" gradientUnits="userSpaceOnUse">
<stop stop-color="#B6509E"/>
<stop offset="1" stop-color="#2EBAC6"/>
</linearGradient>
</defs>
</svg>
