<svg width="24" height="24" viewBox="0 0 24 24" fill="none" xmlns="http://www.w3.org/2000/svg">
<path d="M12 24C18.6274 24 24 18.6274 24 12C24 5.37257 18.6274 0 12 0C5.37257 0 0 5.37257 0 12C0 18.6274 5.37257 24 12 24Z" fill="#1969FF"/>
<path fill-rule="evenodd" clip-rule="evenodd" d="M12.9 9.67499L15.6 8.1V11.25L12.9 9.67499ZM15.6 16.425L12 18.525L8.4 16.425V12.75L12 14.85L15.6 12.75V16.425ZM8.4 8.1L11.1 9.67499L8.4 11.25V8.1ZM12.45 10.425L15.15 12L12.45 13.575V10.425ZM11.55 13.575L8.85002 12L11.55 10.425V13.575ZM15.15 7.35002L12 9.14998L8.85002 7.35002L12 5.47499L15.15 7.35002ZM7.5 7.04998V16.875L12 19.425L16.5 16.875V7.04998L12 4.5L7.5 7.04998Z" fill="white"/>
</svg>
