<svg width="24" height="24" viewBox="0 0 24 24" fill="none" xmlns="http://www.w3.org/2000/svg">
<g clip-path="url(#clip0_3326_2461)">
<path d="M6.72841 23.8025C12.7609 23.8025 12.7609 23.7127 13.7837 23.409C15.1204 23.0122 10.0097 19.4746 6.72841 19.4746C3.44712 19.4746 0.787109 20.4434 0.787109 21.6385C0.787109 22.8337 3.44725 23.8025 6.72841 23.8025Z" fill="black"/>
<path d="M20.4259 5.40155L20.7034 5.70056L20.4608 6.02852C12.5934 16.6659 8.06125 21.4822 6.13831 20.8362C4.96704 20.4428 3.79243 19.2594 2.61779 17.5412C2.20491 16.9372 1.8172 16.3013 1.46458 15.6684C1.22976 15.2469 1.03101 14.8626 0.927818 14.6461C0.796181 14.3699 0.740604 14.1998 0.696511 13.9763C0.693821 13.9626 0.693821 13.9626 0.691265 13.9495C0.672861 13.8546 0.666494 13.8246 0.652738 13.7728C0.416003 12.8806 0.294922 11.9562 0.294922 11.0162C0.294922 5.09502 5.09502 0.294922 11.0162 0.294922C12.8713 0.294922 14.6589 0.767036 16.2432 1.65328L16.2841 1.67887C17.5812 2.58193 18.9609 3.8228 20.4259 5.40155ZM15.742 2.49998C14.3087 1.70286 12.6938 1.27853 11.0162 1.27853C5.63825 1.27853 1.27853 5.63825 1.27853 11.0162C1.27853 11.8708 1.3885 12.7104 1.60345 13.5205C1.6247 13.6007 1.63432 13.6459 1.65686 13.7621C1.65923 13.7743 1.65923 13.7743 1.66151 13.7859C1.68996 13.9301 1.71999 14.022 1.81572 14.2228C1.90986 14.4203 2.09904 14.7862 2.32381 15.1896C2.66273 15.7979 3.03517 16.4088 3.42979 16.9861C4.49106 18.5385 5.54357 19.5988 6.45153 19.9038C7.66251 20.3106 12.2214 15.4847 19.426 5.77309C18.118 4.39246 16.8892 3.30141 15.742 2.49998Z" fill="black"/>
<path d="M15.7418 2.50075C14.3085 1.70363 12.6936 1.2793 11.016 1.2793C5.63804 1.2793 1.27832 5.63902 1.27832 11.017C1.27832 11.8716 1.3883 12.7112 1.60324 13.5213C1.6245 13.6014 1.63411 13.6467 1.65666 13.7629C1.65902 13.7751 1.65902 13.7751 1.6613 13.7867C1.68976 13.9309 1.71978 14.0228 1.81551 14.2236C1.90965 14.4211 2.09883 14.787 2.32361 15.1904C2.66252 15.7987 3.03496 16.4096 3.42958 16.9869C4.49085 18.5393 5.54336 19.5996 6.45132 19.9046C7.66231 20.3114 12.2212 15.4855 19.4258 5.77386C18.1178 4.39323 16.889 3.30218 15.7418 2.50075Z" fill="#EC1C79"/>
<path d="M12.984 23.7043C7.06279 23.7043 2.2627 18.9042 2.2627 12.983C2.2627 7.06181 7.06279 2.26172 12.984 2.26172C18.9052 2.26172 23.7053 7.06181 23.7053 12.983C23.7053 18.9042 18.9052 23.7043 12.984 23.7043ZM12.984 22.7207C18.362 22.7207 22.7217 18.361 22.7217 12.983C22.7217 7.60504 18.362 3.24533 12.984 3.24533C7.60602 3.24533 3.2463 7.60504 3.2463 12.983C3.2463 18.361 7.60602 22.7207 12.984 22.7207Z" fill="black"/>
<path d="M12.9838 22.7215C18.3618 22.7215 22.7215 18.3618 22.7215 12.9838C22.7215 7.60581 18.3618 3.24609 12.9838 3.24609C7.60581 3.24609 3.24609 7.60581 3.24609 12.9838C3.24609 18.3618 7.60581 22.7215 12.9838 22.7215Z" fill="white"/>
<path fill-rule="evenodd" clip-rule="evenodd" d="M5.69907 14.9783L4.41016 11.095H5.53934L6.21134 13.3258L6.95494 11.084H7.87481L8.61842 13.3258L9.29042 11.095H10.3976L9.10865 14.9783H8.17776L7.40111 12.7585L6.62996 14.9783H5.69907ZM10.8217 14.9507V11.095H13.9228V12.0039H11.8793V12.5877H13.73V13.4305H11.8793V14.0419H13.9504V14.9507H10.8217ZM15.4376 14.9507V12.0314H14.2808V11.095H17.6629V12.0314H16.5062V14.9507H15.4376ZM18.1311 14.9507V11.095H19.1997V12.5381H20.5712V11.095H21.6398V14.9507H20.5712V13.4856H19.1997V14.9507H18.1311Z" fill="black"/>
<path d="M0.933513 9.93619C0.661419 9.80014 0.551132 9.46928 0.687178 9.19718C0.823225 8.92509 1.15409 8.8148 1.42618 8.95085L2.99995 9.73774C3.27204 9.87378 3.38233 10.2046 3.24628 10.4767C3.11024 10.7488 2.77938 10.8591 2.50728 10.7231L0.933513 9.93619Z" fill="black"/>
<path d="M0.752755 12.5452C0.476543 12.4177 0.355967 12.0905 0.483443 11.8143C0.610918 11.5381 0.938172 11.4175 1.21438 11.545L2.78815 12.2713C3.06437 12.3988 3.18494 12.726 3.05747 13.0022C2.92999 13.2784 2.60274 13.399 2.32653 13.2715L0.752755 12.5452Z" fill="black"/>
</g>
<defs>
<clipPath id="clip0_3326_2461">
<rect width="24" height="24" fill="white"/>
</clipPath>
</defs>
</svg>
